<svg width="89" height="24" viewBox="0 0 89 24" fill="none" xmlns="http://www.w3.org/2000/svg">
<path d="M6.75075 1.46631e-06C10.7628 1.46631e-06 14.006 3.05105 14.006 6.77477C14.006 8.19219 13.5495 9.48948 12.7327 10.5706C14.5345 11.8679 15.6637 13.8859 15.6637 16.1201C15.6637 20.012 12.3003 23.1351 8.16817 23.1351H0.840841C0.384384 23.1351 0 22.7748 0 22.3183V0.840842C0 0.384386 0.384384 0.024027 0.840841 0.024027L6.75075 1.46631e-06ZM6.58259 9.15316C7.97598 9.15316 9.36937 8.07208 9.36937 6.43844C9.36937 4.80481 7.87988 3.81982 6.48649 3.81982H4.30031V9.15316H6.58259V9.15316ZM8.19219 19.2192C9.87387 19.2192 11.2432 17.994 11.2432 16.4324C11.2432 14.8709 9.84984 13.6216 8.19219 13.6216L4.30031 13.6697V19.2673L8.19219 19.2192Z" transform="translate(0 0.384384)" fill="white"/>
<path d="M14.1802 12.4925C15.3574 13.5495 16.03 15.3994 16.03 17.033C16.03 18.6426 15.6456 20.3483 14.4685 21.6216C13.0991 23.1351 11.1772 24 9.06305 24C8.03002 24 6.61262 23.9279 4.93094 23.4474C3.08109 22.8709 1.73574 22.2222 0.27027 20.8769C-0.0900901 20.5405 -0.0900901 19.988 0.27027 19.6757L2.16817 17.3213C2.48049 17.033 2.98499 17.033 3.32132 17.3213C5.65165 19.3874 8.12613 19.3874 9.08709 19.3874C11.033 19.3874 11.4655 17.6336 11.5375 17.033C11.6817 15.5676 10.2402 14.6066 7.76577 13.7898L7.50149 13.7177C6.73272 13.5255 5.29129 13.1652 3.94594 12.2523C2.07207 11.027 1.01502 9.24925 0.918922 7.01502C0.822826 5.16517 1.42342 3.53153 2.62462 2.28228C4.37837 0.504504 6.90089 0 8.10209 0C11.5375 0 13.4595 1.22523 15.1652 2.30631L15.2613 2.35435C15.6456 2.59459 15.7658 3.0991 15.5255 3.48348L13.9399 6.00601C13.6997 6.39039 13.1712 6.5105 12.7628 6.27026L12.6426 6.1982C11.1291 5.23723 10.1441 4.61262 8.10209 4.61262C7.78978 4.61262 6.61262 4.85285 6.01202 5.47747C5.81982 5.66967 5.57958 6.03003 5.6036 6.7988C5.62763 8 6.46847 8.55256 8.53454 9.34535C10.7928 10.3063 12.9309 11.3874 14.1802 12.4925Z" transform="translate(49.9399)" fill="white"/>
<path d="M13.4535 4.61262H4.56457V9.05706H11.1712C11.6276 9.05706 11.988 9.41741 11.988 9.87387V12.8529C11.988 13.3093 11.6276 13.6937 11.1712 13.6937H4.56457V18.4985H13.7417C14.1982 18.4985 14.5586 18.8589 14.5586 19.3153V22.2943C14.5586 22.7507 14.1982 23.1111 13.7417 23.1111H0.816828C0.360372 23.1111 5.86524e-06 22.7507 5.86524e-06 22.2943V0.816815C5.86524e-06 0.360359 0.360372 0 0.816828 0H13.4535C13.9099 0 14.2703 0.360359 14.2703 0.816815V3.79579C14.2703 4.22823 13.9099 4.61262 13.4535 4.61262Z" transform="translate(74.3304 0.48048)" fill="white"/>
<path d="M16.2402 12.036H15.3754L15.3994 6.99099C15.3994 3.12312 12.3243 0 8.55256 0C4.78079 0 1.70571 3.12312 1.70571 6.99099V12.036H0.840838C0.384381 12.036 -2.93262e-06 12.3964 -2.93262e-06 12.8529V22.7027C-2.93262e-06 23.1592 0.384381 23.5195 0.840838 23.5195H16.2643C16.7207 23.5195 17.1051 23.1592 17.1051 22.7027V12.8529C17.0811 12.3964 16.6967 12.036 16.2402 12.036ZM4.97297 6.63062C4.97297 4.66065 6.6066 3.05105 8.60059 3.05105C10.5946 3.05105 12.2282 4.66065 12.2282 6.63062L12.2042 12.036H4.97297V6.63062Z" transform="translate(24.0961)" fill="white"/>
</svg>
