<svg width="24" height="24" viewBox="0 0 24 24" fill="none" xmlns="http://www.w3.org/2000/svg">
<path d="M4 1C4 0.734784 3.89464 0.48043 3.70711 0.292893C3.51957 0.105357 3.26522 0 3 0C2.73478 0 2.48043 0.105357 2.29289 0.292893C2.10536 0.48043 2 0.734784 2 1V5H0V11H6V5H4V1ZM8 15C8 16.3 8.84 17.4 10 17.82V22H12V17.82C13.16 17.41 14 16.31 14 15V13H8V15ZM0 15C0 16.3 0.84 17.4 2 17.82V22H4V17.82C5.16 17.4 6 16.3 6 15V13H0V15ZM20 5V1C20 0.734784 19.8946 0.48043 19.7071 0.292893C19.5196 0.105357 19.2652 0 19 0C18.7348 0 18.4804 0.105357 18.2929 0.292893C18.1054 0.48043 18 0.734784 18 1V5H16V11H22V5H20ZM12 1C12 0.734784 11.8946 0.48043 11.7071 0.292893C11.5196 0.105357 11.2652 0 11 0C10.7348 0 10.4804 0.105357 10.2929 0.292893C10.1054 0.48043 10 0.734784 10 1V5H8V11H14V5H12V1ZM16 15C16 16.3 16.84 17.4 18 17.82V22H20V17.82C21.16 17.41 22 16.31 22 15V13H16V15Z" transform="translate(1 1)" fill="#BDBDBD"/>
</svg>
